<?xml version="1.0" encoding="utf-8"?>
<!-- Generator: Adobe Illustrator 27.0.0, SVG Export Plug-In . SVG Version: 6.00 Build 0)  -->
<svg version="1.1" id="Layer_1" xmlns="http://www.w3.org/2000/svg" xmlns:xlink="http://www.w3.org/1999/xlink" x="0px" y="0px"
	 viewBox="0 0 119.11 22.42" style="enable-background:new 0 0 119.11 22.42;" xml:space="preserve">
<style type="text/css">
	.st0{fill:#3B4B9F;}
	.st1{font-family:'MicrosoftSansSerif';}
	.st2{font-size:20px;}
	.st3{font-size:12px;}
</style>
<path class="st0" d="M69.41,20.44h-0.54c-0.54,0-1.01-0.05-1.4-0.15s-0.74-0.35-1.03-0.73s-0.47-0.84-0.55-1.37s-0.11-1.3-0.11-2.31
	s-0.04-1.77-0.11-2.26s-0.25-0.9-0.54-1.24s-0.75-0.51-1.37-0.52v-1.59c0.63-0.01,1.08-0.19,1.37-0.52s0.47-0.75,0.54-1.24
	s0.11-1.24,0.11-2.26s0.04-1.79,0.11-2.31s0.26-0.98,0.55-1.37s0.63-0.63,1.03-0.73s0.86-0.15,1.4-0.15h0.54V3.2h-0.3
	c-0.68,0-1.09,0.18-1.25,0.54s-0.23,1.32-0.23,2.9c0,1.41-0.19,2.44-0.56,3.1s-0.93,1.09-1.69,1.33c0.76,0.23,1.32,0.67,1.69,1.32
	s0.56,1.68,0.56,3.1c0,1.58,0.08,2.54,0.23,2.9s0.57,0.54,1.25,0.54h0.3V20.44z"/>
<path class="st0" d="M112.03,1.68h0.54c0.54,0,1.01,0.05,1.4,0.15s0.74,0.35,1.03,0.73s0.47,0.84,0.55,1.37s0.11,1.3,0.11,2.31
	s0.04,1.77,0.11,2.26s0.25,0.9,0.54,1.24s0.75,0.51,1.37,0.52v1.59c-0.62,0.01-1.08,0.19-1.37,0.52s-0.47,0.75-0.54,1.24
	s-0.11,1.24-0.11,2.26s-0.04,1.79-0.11,2.31s-0.26,0.98-0.55,1.37s-0.63,0.63-1.03,0.73s-0.86,0.15-1.4,0.15h-0.54v-1.52h0.3
	c0.68,0,1.09-0.18,1.25-0.54s0.23-1.32,0.23-2.9c0-1.41,0.19-2.44,0.56-3.1s0.93-1.09,1.69-1.32c-0.76-0.23-1.32-0.68-1.69-1.33
	s-0.56-1.68-0.56-3.1c0-1.58-0.08-2.54-0.23-2.9s-0.57-0.54-1.25-0.54h-0.3V1.68z"/>
<text transform="matrix(1 0 0 1 -0.492 15.2447)" class="st1 st2">Blogs()</text>
<text transform="matrix(1 0 0 1 70.406 14.6086)" class="st1 st3">return 0</text>
</svg>
